<?xml version="1.0" encoding="utf-8"?>
<!-- Generator: Adobe Illustrator 19.1.0, SVG Export Plug-In . SVG Version: 6.00 Build 0)  -->
<svg version="1.1" id="Layer_1" xmlns="http://www.w3.org/2000/svg" xmlns:xlink="http://www.w3.org/1999/xlink" x="0px" y="0px"
	 viewBox="0 0 207.2 127.5" style="enable-background:new 0 0 207.2 127.5;" xml:space="preserve">
<style type="text/css">
	.st0{fill:url(#SVGID_1_);}
</style>
<linearGradient id="SVGID_1_" gradientUnits="userSpaceOnUse" x1="25.5159" y1="140.6897" x2="178.1242" y2="-11.9187">
	<stop  offset="0" style="stop-color:#0070BA"/>
	<stop  offset="0.2737" style="stop-color:#0088CC"/>
	<stop  offset="0.8501" style="stop-color:#00C6FC"/>
	<stop  offset="0.8873" style="stop-color:#00CAFF"/>
</linearGradient>
<path class="st0" d="M184,96.5c-25.4,10.8-53.1,16-78.2,16c-37.3,0-73.3-10.2-102.5-27.2c-2.6-1.5-4.4,1.1-2.3,3.1
	c27,24.4,62.8,39.1,102.5,39.1c28.3,0,61.2-8.9,83.9-25.6C191,99.1,187.8,94.9,184,96.5z M190.7,116.9c-0.8,2.1,1,2.9,2.8,1.3
	c12.2-10.2,15.3-31.5,12.8-34.6c-2.5-3.1-23.7-5.7-36.7,3.4c-2,1.4-1.7,3.3,0.6,3.1c7.3-0.9,23.6-2.8,26.5,0.9
	C199.6,94.8,193.5,110.1,190.7,116.9z M61.3,60.7c-0.6,0-1.1-0.5-1.1-1.1V31c0-3.8-0.7-6.5-2-8.2c-1.3-1.7-3.4-2.6-6.3-2.6
	c-5.5,0-10.7,1.8-15.7,5.5c0.2,1.4,0.3,2.7,0.3,4.1v29.8c0,0.6-0.5,1.1-1.1,1.1h-2.7c-0.6,0-1.1-0.5-1.1-1.1V31c0-3.8-0.7-6.5-2-8.2
	c-1.3-1.7-3.4-2.6-6.3-2.6c-5.4,0-10.5,1.8-15.4,5.3v34c0,0.6-0.5,1.1-1.1,1.1H3.9c-0.6,0-1.1-0.5-1.1-1.1V18.1
	c0-0.6,0.5-1.1,1.1-1.1h2.2c0.6,0,1.1,0.4,1.1,1l0.4,3.8c2.6-2,5.3-3.5,8.2-4.5c2.9-1,5.7-1.6,8.4-1.6c5.4,0,9.1,2.2,10.9,6.7
	c2.7-2.1,5.6-3.8,8.7-4.9c3.1-1.2,6.1-1.7,9.1-1.7c4,0,7,1.1,9.1,3.4c2.1,2.3,3.1,5.5,3.1,9.8v30.6c0,0.6-0.5,1.1-1.1,1.1H61.3z
	 M106.9,59.6l-0.4-3.8c-5.5,4-11.2,6.1-17.1,6.1c-4.2,0-7.4-1.1-9.6-3.4c-2.2-2.3-3.3-5.6-3.3-9.9V18.1c0-0.6,0.5-1.1,1.1-1.1h2.7
	c0.6,0,1.1,0.5,1.1,1.1v28.5c0,3.8,0.7,6.6,2.2,8.3c1.4,1.7,3.7,2.6,6.9,2.6c2.8,0,5.5-0.4,8-1.3c2.5-0.9,5.1-2.3,8-4.3V18.1
	c0-0.6,0.5-1.1,1.1-1.1h2.7c0.6,0,1.1,0.5,1.1,1.1v41.4c0,0.6-0.5,1.1-1.1,1.1H108C107.4,60.7,106.9,60.2,106.9,59.6z M145.3,49.2
	c0-1.6-0.6-2.9-1.7-4c-1.1-1.1-3-2.1-5.7-3.1l-7.9-3c-6.2-2.3-9.3-6.1-9.3-11.4c0-3.6,1.3-6.5,4-8.7c2.7-2.2,6.2-3.3,10.5-3.3
	c2,0,4.1,0.2,6.3,0.7c1.9,0.4,3.7,0.9,5.4,1.6c0.4,0.2,0.7,0.6,0.7,1.1v1.8c0,0.8-0.7,1.3-1.4,1.1c-4.1-1.2-7.9-1.8-11.2-1.8
	c-3.1,0-5.5,0.6-7.1,1.9c-1.6,1.2-2.4,3.1-2.4,5.5c0,2,0.6,3.5,1.7,4.6c1.1,1.1,3.3,2.2,6.6,3.5l6.9,2.6c3.2,1.2,5.6,2.7,7.1,4.5
	c1.5,1.8,2.2,3.9,2.2,6.6c0,3.9-1.4,7-4.3,9.3c-2.9,2.3-6.8,3.4-11.7,3.4c-5,0-9.5-0.9-13.5-2.8c-0.4-0.2-0.6-0.6-0.6-1v-1.8
	c0-0.8,0.8-1.3,1.5-1.1c4.6,1.5,8.9,2.3,13,2.3c3.5,0,6.2-0.7,8.1-2.1C144.4,54,145.3,51.9,145.3,49.2z M160.8,7.6
	c-1.2,0-2.1-0.3-2.7-1c-0.7-0.7-1-1.6-1-2.8c0-1.2,0.3-2.1,1-2.8c0.7-0.7,1.6-1,2.7-1c1.2,0,2.1,0.3,2.7,1c0.7,0.7,1,1.6,1,2.8
	c0,1.2-0.3,2.1-1,2.8C162.8,7.3,161.9,7.6,160.8,7.6z M158.2,59.5V18.1c0-0.6,0.5-1.1,1.1-1.1h2.7c0.6,0,1.1,0.5,1.1,1.1v41.4
	c0,0.6-0.5,1.1-1.1,1.1h-2.7C158.8,60.7,158.2,60.1,158.2,59.5z M204.4,57.7c0,0.9-0.6,1.8-1.5,2.1c-3.1,1.2-6.2,1.8-9.4,1.8
	c-6.7,0-11.8-1.9-15.3-5.8c-3.5-3.8-5.2-9.5-5.2-17c0-7.4,1.8-13.1,5.3-17c3.5-3.9,8.6-5.9,15.4-5.9c3,0,5.9,0.5,8.6,1.5
	c0.9,0.3,1.5,1.2,1.5,2.1v1c0,0.7-0.7,1.3-1.4,1.1c-2.7-0.8-5.6-1.1-8.5-1.1c-5.5,0-9.5,1.4-11.9,4.2c-2.5,2.8-3.7,7.3-3.7,13.5v1
	c0,6,1.2,10.5,3.7,13.3c2.5,2.9,6.4,4.3,11.7,4.3c2.8,0,5.8-0.5,9.1-1.5c0.7-0.2,1.4,0.3,1.4,1.1V57.7z"/>
</svg>
